<svg width="19" height="20" viewBox="0 0 19 20" fill="none" xmlns="http://www.w3.org/2000/svg">
<path d="M0.5 10L9.5 19L18.5 10L9.5 1L0.5 10Z" fill="#FF6480"/>
<path fill-rule="evenodd" clip-rule="evenodd" d="M0.146446 9.64645C-0.048816 9.84171 -0.0488159 10.1583 0.146446 10.3536L9.14644 19.3536C9.34171 19.5488 9.65829 19.5488 9.85355 19.3536L18.8536 10.3536C18.9473 10.2598 19 10.1326 19 10C19 9.86739 18.9473 9.74022 18.8536 9.64645L9.85355 0.646447C9.75978 0.552679 9.63261 0.5 9.5 0.5C9.36739 0.5 9.24021 0.552679 9.14644 0.646447L0.146446 9.64645ZM0.5 10L9.5 19L18.5 10L9.5 1L0.5 10Z" fill="#60050F"/>
<path d="M12.25 12.25C12.25 12.3881 12.1381 12.5 12 12.5C11.8619 12.5 11.75 12.3881 11.75 12.25C11.75 12.1119 11.8619 12 12 12C12.1381 12 12.25 12.1119 12.25 12.25Z" fill="#D15151"/>
<path d="M12.25 13.25C12.25 13.3881 12.1381 13.5 12 13.5C11.8619 13.5 11.75 13.3881 11.75 13.25C11.75 13.1119 11.8619 13 12 13C12.1381 13 12.25 13.1119 12.25 13.25Z" fill="#D15151"/>
<path d="M11.25 14.25C11.25 14.3881 11.1381 14.5 11 14.5C10.8619 14.5 10.75 14.3881 10.75 14.25C10.75 14.1119 10.8619 14 11 14C11.1381 14 11.25 14.1119 11.25 14.25Z" fill="#D15151"/>
<path d="M10.5 15.25C10.5 15.3881 10.3881 15.5 10.25 15.5C10.1119 15.5 10 15.3881 10 15.25C10 15.1119 10.1119 15 10.25 15C10.3881 15 10.5 15.1119 10.5 15.25Z" fill="#D15151"/>
<path d="M11 11.5C11 11.6381 10.8881 11.75 10.75 11.75C10.6119 11.75 10.5 11.6381 10.5 11.5C10.5 11.3619 10.6119 11.25 10.75 11.25C10.8881 11.25 11 11.3619 11 11.5Z" fill="#D15151"/>
<path d="M13.5 10.75C13.5 10.8881 13.3881 11 13.25 11C13.1119 11 13 10.8881 13 10.75C13 10.6119 13.1119 10.5 13.25 10.5C13.3881 10.5 13.5 10.6119 13.5 10.75Z" fill="#D15151"/>
<path d="M12.25 10.875C12.25 11.0821 12.0821 11.25 11.875 11.25C11.6679 11.25 11.5 11.0821 11.5 10.875C11.5 10.6679 11.6679 10.5 11.875 10.5C12.0821 10.5 12.25 10.6679 12.25 10.875Z" fill="#D15151"/>
<path d="M11.25 13.125C11.25 13.3321 11.0821 13.5 10.875 13.5C10.6679 13.5 10.5 13.3321 10.5 13.125C10.5 12.9179 10.6679 12.75 10.875 12.75C11.0821 12.75 11.25 12.9179 11.25 13.125Z" fill="#D15151"/>
<path d="M0.5 10L9.5 1L18.5 10L0.5 10Z" fill="#FF8298"/>
<path fill-rule="evenodd" clip-rule="evenodd" d="M9.48057 2.02341C9.60574 2.08168 9.65998 2.23039 9.60171 2.35557L6.22671 9.60557C6.16844 9.73074 6.01973 9.78498 5.89455 9.72671C5.76938 9.66844 5.71514 9.51972 5.77341 9.39455L9.14841 2.14455C9.20668 2.01938 9.35539 1.96514 9.48057 2.02341Z" fill="#FFADBC"/>
<path d="M5 10L9.5 19L0.499998 10L9.5 1L5 10Z" fill="#C3323D"/>
<path d="M2.5 10L9.5 19L0.499998 10L9.5 1L2.5 10Z" fill="#FE7C86"/>
<path d="M5 10L9.5 1L0.499998 10L5 10Z" fill="#FE7C86"/>
<path d="M2.5 10L9.5 1L0.499998 10L2.5 10Z" fill="#FFC6D0"/>
<path d="M14 10L9.5 19L18.5 10L9.5 1L14 10Z" fill="#DF5560"/>
<path d="M14 10L9.5 1L18.5 10L14 10Z" fill="#B7232F"/>
<path d="M16.5 10L9.5 19L18.5 10L9.5 1L16.5 10Z" fill="#D74E67"/>
<path d="M16.5 10L9.5 1L18.5 10L16.5 10Z" fill="#FE7C86"/>
<path fill-rule="evenodd" clip-rule="evenodd" d="M5.42058 5.56724C5.52152 5.66145 5.52697 5.81964 5.43276 5.92058L1.93276 9.67058C1.83856 9.77152 1.68036 9.77697 1.57942 9.68276C1.47848 9.58856 1.47303 9.43036 1.56724 9.32942L5.06724 5.57942C5.16145 5.47848 5.31964 5.47303 5.42058 5.56724Z" fill="#FFEFF2"/>
</svg>
