<svg width="19" height="19" viewBox="0 0 19 19" fill="none" xmlns="http://www.w3.org/2000/svg">
<path d="M0.5 9.5L9.5 18.5L18.5 9.5L9.5 0.5L0.5 9.5Z" fill="#FF6480"/>
<path fill-rule="evenodd" clip-rule="evenodd" d="M0.146446 9.14645C-0.048816 9.34171 -0.0488159 9.65829 0.146446 9.85355L9.14644 18.8536C9.34171 19.0488 9.65829 19.0488 9.85355 18.8536L18.8536 9.85355C18.9473 9.75979 19 9.63261 19 9.5C19 9.36739 18.9473 9.24022 18.8536 9.14645L9.85355 0.146447C9.75978 0.0526788 9.63261 4.21055e-07 9.5 4.15258e-07C9.36739 4.39264e-07 9.24021 0.0526789 9.14644 0.146447L0.146446 9.14645ZM0.5 9.5L9.5 18.5L18.5 9.5L9.5 0.5L0.5 9.5Z" fill="#60050F"/>
<path d="M12.25 11.75C12.25 11.8881 12.1381 12 12 12C11.8619 12 11.75 11.8881 11.75 11.75C11.75 11.6119 11.8619 11.5 12 11.5C12.1381 11.5 12.25 11.6119 12.25 11.75Z" fill="#D15151"/>
<path d="M12.25 12.75C12.25 12.8881 12.1381 13 12 13C11.8619 13 11.75 12.8881 11.75 12.75C11.75 12.6119 11.8619 12.5 12 12.5C12.1381 12.5 12.25 12.6119 12.25 12.75Z" fill="#D15151"/>
<path d="M11.25 13.75C11.25 13.8881 11.1381 14 11 14C10.8619 14 10.75 13.8881 10.75 13.75C10.75 13.6119 10.8619 13.5 11 13.5C11.1381 13.5 11.25 13.6119 11.25 13.75Z" fill="#D15151"/>
<path d="M10.5 14.75C10.5 14.8881 10.3881 15 10.25 15C10.1119 15 10 14.8881 10 14.75C10 14.6119 10.1119 14.5 10.25 14.5C10.3881 14.5 10.5 14.6119 10.5 14.75Z" fill="#D15151"/>
<path d="M11 11C11 11.1381 10.8881 11.25 10.75 11.25C10.6119 11.25 10.5 11.1381 10.5 11C10.5 10.8619 10.6119 10.75 10.75 10.75C10.8881 10.75 11 10.8619 11 11Z" fill="#D15151"/>
<path d="M13.5 10.25C13.5 10.3881 13.3881 10.5 13.25 10.5C13.1119 10.5 13 10.3881 13 10.25C13 10.1119 13.1119 10 13.25 10C13.3881 10 13.5 10.1119 13.5 10.25Z" fill="#D15151"/>
<path d="M12.25 10.375C12.25 10.5821 12.0821 10.75 11.875 10.75C11.6679 10.75 11.5 10.5821 11.5 10.375C11.5 10.1679 11.6679 10 11.875 10C12.0821 10 12.25 10.1679 12.25 10.375Z" fill="#D15151"/>
<path d="M11.25 12.625C11.25 12.8321 11.0821 13 10.875 13C10.6679 13 10.5 12.8321 10.5 12.625C10.5 12.4179 10.6679 12.25 10.875 12.25C11.0821 12.25 11.25 12.4179 11.25 12.625Z" fill="#D15151"/>
<path d="M0.5 9.5L9.5 0.5L18.5 9.5L0.5 9.5Z" fill="#FF8298"/>
<path fill-rule="evenodd" clip-rule="evenodd" d="M9.48057 1.52341C9.60574 1.58168 9.65998 1.73039 9.60171 1.85557L6.22671 9.10557C6.16844 9.23074 6.01973 9.28498 5.89455 9.22671C5.76938 9.16844 5.71514 9.01972 5.77341 8.89455L9.14841 1.64455C9.20668 1.51938 9.35539 1.46514 9.48057 1.52341Z" fill="#FFADBC"/>
<path d="M5 9.5L9.5 18.5L0.499998 9.5L9.5 0.5L5 9.5Z" fill="#C3323D"/>
<path d="M2.5 9.5L9.5 18.5L0.499998 9.5L9.5 0.5L2.5 9.5Z" fill="#FE7C86"/>
<path d="M5 9.5L9.5 0.5L0.499998 9.5L5 9.5Z" fill="#FE7C86"/>
<path d="M2.5 9.5L9.5 0.5L0.499998 9.5L2.5 9.5Z" fill="#FFC6D0"/>
<path d="M14 9.5L9.5 18.5L18.5 9.5L9.5 0.5L14 9.5Z" fill="#DF5560"/>
<path d="M14 9.5L9.5 0.5L18.5 9.5L14 9.5Z" fill="#B7232F"/>
<path d="M16.5 9.5L9.5 18.5L18.5 9.5L9.5 0.5L16.5 9.5Z" fill="#D74E67"/>
<path d="M16.5 9.5L9.5 0.5L18.5 9.5L16.5 9.5Z" fill="#FE7C86"/>
<path fill-rule="evenodd" clip-rule="evenodd" d="M5.42058 5.06724C5.52152 5.16145 5.52697 5.31964 5.43276 5.42058L1.93276 9.17058C1.83856 9.27152 1.68036 9.27697 1.57942 9.18276C1.47848 9.08856 1.47303 8.93036 1.56724 8.82942L5.06724 5.07942C5.16145 4.97848 5.31964 4.97303 5.42058 5.06724Z" fill="#FFEFF2"/>
</svg>
